<?xml version="1.0" encoding="UTF-8"?><svg id="Capa_1" xmlns="http://www.w3.org/2000/svg" viewBox="0 0 161.74 35.49"><defs><style>.cls-1{fill:#fff;}.cls-2{fill:#7800e8;}.cls-3{fill:#f1c40f;}.cls-4{fill:#414141;}</style></defs><path class="cls-2" d="m110.66,35.11v-2.43h-2.43v-2.43h-2.43v-2.43h-2.43v-9.72h4.86v7.29h2.43v2.43h2.43v-2.43h2.43v-7.29h4.86v9.72h-2.43v2.43h-2.43v2.43h-2.43v2.43h-2.43Z"/><path class="cls-2" d="m124.26,35.11v-17.01h17.01v2.43h-12.15v4.86h9.72v2.43h-9.72v4.86h12.15v2.43h-17.01Z"/><path class="cls-2" d="m144.56,35.11v-17.01h14.58v2.43h2.43v7.29h-4.86v2.43h2.43v2.43h2.43v2.43h-7.29v-2.43h-2.43v-2.43h-2.43v4.86h-4.86Zm4.86-7.29h4.86v-2.43h2.43v-4.86h-7.29v7.29Z"/><path class="cls-2" d="m4.67,33.43v-2.27h-2.27v-2.27H.12v-6.82h2.27v-2.27h2.27v-2.27h11.37v2.27H6.94v2.27h-2.27v6.82h2.27v2.27h4.55v-4.55h-2.27v-2.27h6.82v9.1H4.67Z"/><path class="cls-2" d="m18.32,33.43v-11.37h2.27v-2.27h2.27v-2.27h6.82v2.27h2.27v2.27h2.27v11.37h-4.55v-4.55h-6.82v4.55h-4.55Zm4.55-6.82h6.82v-4.55h-2.27v-2.27h-2.27v2.27h-2.27v4.55Z"/><path class="cls-2" d="m36.52,33.43v-15.92h4.55v2.27h2.27v2.27h2.27v-2.27h2.27v-2.27h4.55v15.92h-4.55v-9.1h-2.27v4.55h-2.27v-4.55h-2.27v9.1h-4.55Z"/><path class="cls-2" d="m54.71,33.43v-15.92h15.92v2.27h-11.37v4.55h9.1v2.27h-9.1v4.55h11.37v2.27h-15.92Z"/><path d="m4.55,31.25v-2.27h-2.27v-2.27H0v-6.82h2.27v-2.27h2.27v-2.27h11.37v2.27H6.82v2.27h-2.27v6.82h2.27v2.27h4.55v-4.55h-2.27v-2.27h6.82v9.1H4.55Z"/><path d="m18.2,31.25v-11.37h2.27v-2.27h2.27v-2.27h6.82v2.27h2.27v2.27h2.27v11.37h-4.55v-4.55h-6.82v4.55h-4.55Zm4.55-6.82h6.82v-4.55h-2.27v-2.27h-2.27v2.27h-2.27v4.55Z"/><path d="m36.4,31.25v-15.92h4.55v2.27h2.27v2.27h2.27v-2.27h2.27v-2.27h4.55v15.92h-4.55v-9.1h-2.27v4.55h-2.27v-4.55h-2.27v9.1h-4.55Z"/><path d="m54.6,31.25v-15.92h15.92v2.27h-11.37v4.55h9.1v2.27h-9.1v4.55h11.37v2.27h-15.92Z"/><path d="m110.84,32.79v-2.43h-2.43v-2.43h-2.43v-2.43h-2.43v-9.72h4.86v7.29h2.43v2.43h2.43v-2.43h2.43v-7.29h4.86v9.72h-2.43v2.43h-2.43v2.43h-2.43v2.43h-2.43Z"/><path d="m124.43,32.79V15.78h17.01v2.43h-12.15v4.86h9.72v2.43h-9.72v4.86h12.15v2.43h-17.01Z"/><path d="m144.74,32.79V15.78h14.58v2.43h2.43v7.29h-4.86v2.43h2.43v2.43h2.43v2.43h-7.29v-2.43h-2.43v-2.43h-2.43v4.86h-4.86Zm4.86-7.29h4.86v-2.43h2.43v-4.86h-7.29v7.29Z"/><g><path d="m89.56,5.6c0,1.18,0,2.36-.01,3.54,0,.18.07.21.23.21.46,0,.92,0,1.38,0,.22,0,.27.07.26.27,0,1.07,0,2.14,0,3.21,0,.21.05.27.26.27,1.07-.01,2.14,0,3.21-.01.2,0,.28.05.27.26-.01.54,0,1.08,0,1.62,0,0-.01.01-.01.01-3.02,0-6.04,0-9.06,0-.2,0-.26.07-.26.26.01.44,0,.88,0,1.32,0,.22-.05.3-.28.29-.44-.02-.88,0-1.32,0-.23,0-.31.07-.31.31,0,2.92,0,5.84,0,8.76,0,.2.07.26.26.25.47-.01.94,0,1.41,0,.18,0,.25.05.24.24-.01.43.02.86-.01,1.29-.02.29.09.35.36.34,1.03-.01,2.06,0,3.09-.01.22,0,.3.06.29.29-.02.44,0,.88,0,1.32,0,.19.05.27.25.27,1.68,0,3.36,0,5.04,0,.25,0,.31-.1.3-.32-.01-.44,0-.88,0-1.32,0-.17.06-.23.23-.23.43,0,.86-.01,1.29,0,.26.01.38-.05.36-.34-.03-.43,0-.86-.01-1.29,0-.19.06-.24.24-.24.54,0,1.08,0,1.62,0,0,0,.01.02.01.02,0,1.15,0,2.3,0,3.45,0,.22-.05.29-.28.28-.46-.02-.92,0-1.38,0-.17,0-.22.05-.22.22.01.47,0,.94,0,1.41,0,.2-.06.25-.25.25-.46-.01-.92,0-1.38,0-.2,0-.25.06-.24.26.01.45,0,.9.01,1.35.01.24-.07.28-.29.28-1.05-.01-2.1,0-3.15-.01-.23,0-.31.05-.3.29.02.44,0,.88.01,1.32,0,.2-.04.27-.26.27-1.69,0-3.38-.01-5.07,0-.24,0-.28-.08-.27-.29.02-.42-.01-.84.01-1.26.01-.26-.05-.34-.32-.34-1.02.02-2.04,0-3.06.02-.32,0-.39-.1-.37-.39.02-.4-.01-.8.01-1.2.02-.26-.08-.31-.32-.3-.44.02-.88,0-1.32,0-.19,0-.24-.05-.23-.24.01-.43-.01-.86.01-1.29.01-.26-.04-.37-.34-.35-.41.03-.82-.01-1.23.01-.28.02-.32-.08-.32-.34.01-1.04,0-2.08.01-3.12,0-.22-.04-.3-.28-.29-.46.02-.92,0-1.38,0-.16,0-.22-.04-.22-.22,0-1.72,0-3.44,0-5.16,0-.19.07-.23.24-.23.45.01.9,0,1.35,0,.22,0,.29-.05.28-.28-.01-1.05,0-2.1-.01-3.15,0-.25.07-.32.32-.31.43.02.86,0,1.29.01.23.01.29-.07.28-.29-.02-.45,0-.9,0-1.35,0-.18.05-.24.23-.24.47.01.94,0,1.41,0,.17,0,.23-.05.22-.22,0-.47,0-.94,0-1.41,0-.2.06-.25.26-.25,1.06,0,2.12,0,3.18.01.26,0,.31-.08.31-.32-.01-1.04,0-2.08-.01-3.12,0-.26.08-.32.32-.31.43.02.86,0,1.29,0,.2,0,.27-.04.27-.26-.01-1.06,0-2.12,0-3.18,0-.23.05-.31.29-.3.53.02,1.06,0,1.59,0h0Z"/><path d="m97,3.75c-1.85,0-3.71,0-5.56,0,0,0,0,0,0,0-.07-.59-.01-1.17-.03-1.76,0-.17.12-.12.21-.12.66,0,1.32,0,1.98,0,1.05,0,2.1,0,3.15,0,.22,0,.27.06.26.27-.02.54-.02,1.08-.03,1.62h0Z"/><path d="m98.88,20.53c.53,0,1.06.01,1.59,0,.2,0,.27.03.27.26,0,1.71,0,3.42,0,5.13,0,.2-.08.22-.24.22-.54,0-1.08,0-1.62,0v-.02c-.01-1.86-.01-3.72-.01-5.58h.01Z"/><path d="m102.61,11.21c0-.55,0-1.1,0-1.65,0-.17.05-.22.22-.22.48,0,.96,0,1.44,0,.17,0,.22.06.22.23,0,1.1,0,2.2,0,3.3,0,.17-.05.23-.22.22-.48-.01-.96-.01-1.44,0-.17,0-.22-.05-.22-.22,0-.55,0-1.1,0-1.65Z"/><path d="m104.48,1.9c0,.54,0,1.08,0,1.62,0,.19-.05.24-.23.23-.47-.01-.94-.01-1.41,0-.17,0-.24-.03-.24-.23.01-1.1,0-2.2,0-3.3,0-.17.04-.23.22-.22.48.01.96.01,1.44,0,.2,0,.23.08.22.25,0,.55,0,1.1,0,1.65Z"/><path d="m102.64,7.44c-.96.05-1.93.02-2.89.02-.28,0-.66.13-.82-.06-.14-.17-.04-.53-.04-.81,0-.33-.01-.66-.02-.98,0,0,0,0,0,0,1.2,0,2.41,0,3.61,0,.14.08.11.22.12.34.03.5-.06,1,.06,1.49Z"/><path d="m110.05,7.47c-.55,0-1.1,0-1.65,0-.15,0-.21-.04-.2-.2,0-.49,0-.98,0-1.47,0-.16.05-.21.2-.2,1.12,0,2.23,0,3.35,0,.14,0,.19.03.19.18,0,.5,0,1,0,1.5,0,.18-.09.19-.22.18-.56,0-1.12,0-1.68,0Z"/><path d="m97.02,16.81c.53,0,1.06.01,1.59,0,.24,0,.28.07.27.29,0,1.15,0,2.3,0,3.44h-.01c-.53,0-1.06,0-1.58.01-.23,0-.28-.07-.28-.29,0-1.14,0-2.29,0-3.43h.01Z"/><path d="m106.35,2.79c0-.24.01-.48,0-.72,0-.16.05-.2.21-.2.47,0,.94,0,1.41,0,.19,0,.26-.04.25-.24-.02-.46,0-.92,0-1.38,0-.18.03-.27.24-.26.47.02.94.01,1.41,0,.15,0,.24.02.23.21-.01.49-.01.98,0,1.47,0,.17-.07.2-.21.2-.48,0-.96,0-1.44,0-.19,0-.24.06-.23.24.01.45,0,.9,0,1.35,0,.2-.05.29-.26.29-.47,0-.94,0-1.41,0-.17,0-.2-.06-.19-.21.01-.25,0-.5,0-.75Z"/><path class="cls-3" d="m102.64,7.44c-.12-.49-.03-.99-.06-1.49,0-.13.03-.26-.12-.34.61,0,1.21,0,1.82-.02.15,0,.21.05.21.21,0,.49,0,.98,0,1.46,0,.13-.03.21-.18.2-.56-.02-1.11.03-1.67-.03Z"/><path d="m106.35,10.27c0-.24,0-.48,0-.72,0-.15.03-.22.2-.21.49,0,.98,0,1.46,0,.15,0,.21.05.2.21,0,.49,0,.98,0,1.46,0,.14-.03.21-.2.21-.49-.01-.98,0-1.46,0-.15,0-.21-.04-.2-.2.01-.25,0-.5,0-.75h0Z"/><path d="m89.57,5.61c0-.56,0-1.12-.02-1.68,0-.14.04-.19.19-.19.57.01,1.14.01,1.71.02,0,0,0,0,0,0-.05.54-.02,1.07-.02,1.61,0,.19-.05.25-.25.25-.54-.02-1.07-.01-1.61-.01,0,0,0,0,0,0Z"/><path d="m97,3.75c.57,0,1.14,0,1.71-.01.13,0,.18.04.18.17-.02.57.03,1.14-.03,1.71,0,0,0,0,0,0-.49,0-.98,0-1.46,0-.39,0-.38,0-.39-.4,0-.49,0-.97-.01-1.46,0,0,0,0,0,0Z"/><path d="m95.16,14.95c.54,0,1.08,0,1.62,0,.21,0,.24.07.24.26,0,.54,0,1.08,0,1.62h-.01c-.54.01-1.07,0-1.61.01-.19,0-.26-.06-.26-.25.01-.54,0-1.07,0-1.61h.01Z"/><path d="m109.16,11.21s.08,0,.12,0c.26.02.59-.11.75.06.16.17.04.5.05.75,0,.28,0,.56,0,.84,0,.15-.04.21-.2.21-.5,0-1,0-1.5,0-.13,0-.18-.04-.18-.17,0-.51,0-1.02,0-1.53,0-.14.06-.17.18-.16.26,0,.52,0,.78,0Z"/><path class="cls-4" d="m95.15,14.96c0,.54,0,1.07,0,1.61,0,.2.06.26.26.25.54-.01,1.07,0,1.61,0,0,1.14,0,2.29,0,3.43,0,.22.05.3.28.29.53-.02,1.05,0,1.58,0,0,1.86,0,3.72,0,5.58-.54,0-1.08,0-1.62,0-.18,0-.25.05-.24.24.01.43-.02.86.01,1.29.02.29-.09.35-.36.34-.43-.02-.86,0-1.29,0-.17,0-.23.06-.23.23,0,.44,0,.88,0,1.32,0,.22-.06.32-.3.32-1.68,0-3.36,0-5.04,0-.21,0-.26-.08-.25-.27,0-.44,0-.88,0-1.32,0-.23-.07-.29-.29-.29-1.03.01-2.06,0-3.09.01-.26,0-.38-.05-.36-.34.03-.43,0-.86.01-1.29,0-.19-.06-.24-.24-.24-.47,0-.94,0-1.41,0-.19,0-.26-.05-.26-.25,0-2.92,0-5.84,0-8.76,0-.24.08-.32.31-.31.44.01.88,0,1.32,0,.23,0,.29-.07.28-.29-.02-.44,0-.88,0-1.32,0-.19.06-.26.26-.26,3.02,0,6.04,0,9.06,0Zm0,5.58h0c0-.53,0-1.06,0-1.59,0-.22-.05-.3-.28-.29-.45.02-.9,0-1.35,0-.18,0-.24-.05-.24-.24.01-.47,0-.94,0-1.41,0-.17-.05-.23-.22-.22-.46.01-.92.01-1.38,0-.21,0-.27.06-.27.27,0,1.08,0,2.16,0,3.24,0,.18.05.24.24.24.46-.01.92,0,1.38,0,.19,0,.26.05.26.25-.01.45,0,.9,0,1.35,0,.2.04.28.26.27.45-.02.9-.01,1.35,0,.19,0,.26-.04.26-.25-.01-.54,0-1.08,0-1.62Z"/><path class="cls-1" d="m95.15,20.54c0,.54,0,1.08,0,1.62,0,.2-.07.25-.26.25-.45-.01-.9-.02-1.35,0-.22,0-.27-.08-.26-.27.01-.45,0-.9,0-1.35,0-.2-.06-.26-.26-.25-.46.01-.92,0-1.38,0-.19,0-.24-.05-.24-.24,0-1.08,0-2.16,0-3.24,0-.21.06-.27.27-.27.46.02.92.01,1.38,0,.17,0,.22.05.22.22,0,.47,0,.94,0,1.41,0,.19.06.24.24.24.45-.01.9.01,1.35,0,.23-.01.29.07.28.29-.01.53,0,1.06,0,1.59h0Z"/></g></svg>